<svg xmlns="http://www.w3.org/2000/svg" viewBox="0 0 694.34 205.78"><defs><style>.cls-1{fill:#4b766e;}</style></defs><g id="Layer_2" data-name="Layer 2"><g id="Layer_1-2" data-name="Layer 1"><path class="cls-1" d="M145.6,0A138.45,138.45,0,0,1,137,73.05,138.31,138.31,0,0,1,92.77,131.8a138.32,138.32,0,0,1,8.59-73A138.25,138.25,0,0,1,145.6,0Z"/><path class="cls-1" d="M214.42,91.72a108.19,108.19,0,0,1-48,40.07,108.8,108.8,0,0,1-62.25,6.91,108.55,108.55,0,0,1,110.25-47Z"/><path class="cls-1" d="M184.05,182.74a77.36,77.36,0,0,1-80.44-28,77.36,77.36,0,0,1,80.44,28Z"/><path class="cls-1" d="M125.78,205.78a45.06,45.06,0,0,1-30.46-39.23,45.06,45.06,0,0,1,30.46,39.23Z"/><path class="cls-1" d="M42.54,108.19c.73-8-1.78-14.08-4.14-19.77s-4.42-10.69-9.61-15c-2.72-2.26-7.85-6.51-13.89-5.38-5.6,1.06-8.72,6.12-10.6,9.16C.66,83.12.39,88.86.14,93.9s-.53,11,2.56,17.68A31.8,31.8,0,0,0,13.11,124c2.91,2.12,5.36,3.9,9.07,4.42,7.82,1.09,13.76-4.46,14.41-5.1C41.59,118.52,42.16,112.31,42.54,108.19Z"/><path class="cls-1" d="M50.42,84c9,3.3,17-1.28,17.66-1.64,5.4-3.18,7.67-8,9.09-11C82,61.3,80,51.43,78.79,45.34a49,49,0,0,0-7.51-18c-4.26-6.23-7.37-7.5-8.19-7.81-6.26-2.35-12.4,1.08-13.53,1.71-4.55,2.54-6.62,6.24-9.66,11.7C37.63,37,35,41.75,34,48.7A37.84,37.84,0,0,0,36.93,69C39.19,73.91,42.46,81.08,50.42,84Z"/><path class="cls-1" d="M67.17,142.82c-.44-1.81-1.88-7.75,1.74-12.14a11.83,11.83,0,0,1,13.67-3.15,11.32,11.32,0,0,1,5.1,5.13L85.52,93.51c-9.72.82-16.46,5.84-19.42,8.1-6.71,5.15-5.56,7.42-14.15,17.5C40.66,132.37,35.84,131.77,31.79,141a31.77,31.77,0,0,0-2,20.55c.61,2.41,3.06,11.39,11.62,16.86,6.56,4.19,13.22,4,19.46,3.76,15.65-.62,16.26-6.78,29.1-7.48l-.76-13.8C87.67,160.47,70.35,155.88,67.17,142.82Z"/><path class="cls-1" d="M239.11,76.91V11.84h26.16q10.13,0,15.67,4.37t5.63,12.37a16.2,16.2,0,0,1-2.33,8.92A14.28,14.28,0,0,1,278,43a19.66,19.66,0,0,1-8.57,1.86l1.47-2.23a23.28,23.28,0,0,1,10,2,14.17,14.17,0,0,1,6.58,5.68,17.1,17.1,0,0,1,2.34,9.29q0,8.28-5.72,12.83T267,76.91Zm6.41-5.67h21.39q8,0,12.22-2.88T283.37,59q0-6.31-4.24-9.2t-12.22-3H244.83V41.13h20q7.28,0,11.25-3t4.07-8.83q0-6-4.07-8.83t-11.25-3H245.52Z"/><path class="cls-1" d="M294.71,76.91l27.71-65.07h6.32l27.72,65.07H349.7L324.24,15.84h2.6L301.38,76.91Zm10.91-17.38,1.9-5.58h35.25l1.91,5.58Z"/><path class="cls-1" d="M366.49,76.91V11.84h6.4V71h33.95v6Z"/><path class="cls-1" d="M407.79,76.91,435.5,11.84h6.32l27.72,65.07h-6.76L437.32,15.84h2.6L414.45,76.91ZM418.7,59.53,420.6,54h35.25l1.91,5.58Z"/><path class="cls-1" d="M479.56,76.91V11.84h5.29l41.83,56.52h-2.77V11.84h6.32V76.91H525L483.2,20.4H486V76.91Z"/><path class="cls-1" d="M576.35,77.47a32.44,32.44,0,0,1-12.65-2.42,30.18,30.18,0,0,1-10.05-7A32.54,32.54,0,0,1,547,57.58a36.05,36.05,0,0,1-2.34-13.2A36.05,36.05,0,0,1,547,31.18a32.7,32.7,0,0,1,6.66-10.51,30.16,30.16,0,0,1,10.14-6.87,31.38,31.38,0,0,1,12.64-2.51,31.93,31.93,0,0,1,12.39,2.41,24.49,24.49,0,0,1,9.78,7.07l-4.07,4.37a22,22,0,0,0-8.22-5.86,25.2,25.2,0,0,0-9.7-1.86,24.94,24.94,0,0,0-10.14,2,23.19,23.19,0,0,0-8.14,5.67,26.44,26.44,0,0,0-5.45,8.55A28.69,28.69,0,0,0,551,44.38a29.43,29.43,0,0,0,1.91,10.78,27.91,27.91,0,0,0,5.45,8.55,24.86,24.86,0,0,0,8.14,5.67,25.92,25.92,0,0,0,10.14,2,25.2,25.2,0,0,0,9.7-1.86,23,23,0,0,0,8.22-6l4.07,4.37a25.26,25.26,0,0,1-9.78,7.15A32,32,0,0,1,576.35,77.47Z"/><path class="cls-1" d="M618,40.94h32V46.8H618Zm.69,30h36.46v6H612.26V11.84h41.57v5.95H618.67Z"/><path class="cls-1" d="M239.11,189.79V124.72h26.16q10.13,0,15.67,4.37t5.63,12.36a16.21,16.21,0,0,1-2.33,8.93,14.34,14.34,0,0,1-6.24,5.48,19.66,19.66,0,0,1-8.57,1.86l1.47-2.23a23.28,23.28,0,0,1,10,1.95,14.2,14.2,0,0,1,6.58,5.67,17.16,17.16,0,0,1,2.34,9.3q0,8.26-5.72,12.83T267,189.79Zm6.41-5.67h21.39q8,0,12.22-2.88t4.24-9.39q0-6.32-4.24-9.2t-12.22-3H244.83V154h20q7.28,0,11.25-3t4.07-8.83q0-6-4.07-8.83t-11.25-3H245.52Z"/><path class="cls-1" d="M330.91,190.35a33.21,33.21,0,0,1-12.73-2.42A31.33,31.33,0,0,1,308,181a34.12,34.12,0,0,1-6.66-10.5,36.26,36.26,0,0,1-2.34-13.2,35.48,35.48,0,0,1,2.34-13.11A32.7,32.7,0,0,1,308,133.64a29.57,29.57,0,0,1,10.14-7,33.31,33.31,0,0,1,25.37,0,29.24,29.24,0,0,1,10.05,6.88,31,31,0,0,1,6.67,10.51,37.21,37.21,0,0,1,0,26.4A30.91,30.91,0,0,1,353.6,181a30.33,30.33,0,0,1-10.05,7A32.57,32.57,0,0,1,330.91,190.35Zm0-6.14a25.39,25.39,0,0,0,10-2,23.93,23.93,0,0,0,8.06-5.67,26.9,26.9,0,0,0,5.37-8.55,29.68,29.68,0,0,0,1.9-10.78,28.89,28.89,0,0,0-1.9-10.69A25.58,25.58,0,0,0,349,138a22.36,22.36,0,0,0-8.06-5.67,24.42,24.42,0,0,0-10-2,25,25,0,0,0-10.13,2,23.23,23.23,0,0,0-8.15,5.67,27.64,27.64,0,0,0-5.37,8.56,28.89,28.89,0,0,0-1.9,10.69,29.42,29.42,0,0,0,1.9,10.69,28.88,28.88,0,0,0,5.37,8.64,24.9,24.9,0,0,0,8.15,5.67A26,26,0,0,0,330.91,184.21Z"/><path class="cls-1" d="M388,189.79V130.67h-21.3v-5.95h49v5.95H394.4v59.12Z"/><path class="cls-1" d="M413.2,189.79l27.71-65.07h6.32L475,189.79h-6.76l-25.46-61.07h2.6l-25.46,61.07Zm10.91-17.38,1.91-5.58h35.24l1.91,5.58Z"/><path class="cls-1" d="M485,189.79V124.72h5.28l41.83,56.52h-2.77V124.72h6.32v65.07h-5.28l-41.75-56.52h2.78v56.52Z"/><path class="cls-1" d="M555.43,189.79V124.72h6.41v65.07Z"/><path class="cls-1" d="M607.89,190.35a32.57,32.57,0,0,1-12.64-2.42,30.33,30.33,0,0,1-10-7,32.85,32.85,0,0,1-6.67-10.5,38.4,38.4,0,0,1,0-26.4,32.89,32.89,0,0,1,6.67-10.51,30.18,30.18,0,0,1,10.14-6.88A31.52,31.52,0,0,1,608,124.16a31.93,31.93,0,0,1,12.39,2.42,24.53,24.53,0,0,1,9.78,7.06L626.08,138a22,22,0,0,0-8.23-5.85,26.2,26.2,0,0,0-19.83.18,23.19,23.19,0,0,0-8.14,5.67,26.79,26.79,0,0,0-5.46,8.56,28.89,28.89,0,0,0-1.9,10.69,29.68,29.68,0,0,0,1.9,10.78,28.25,28.25,0,0,0,5.46,8.55,24.86,24.86,0,0,0,8.14,5.67,26,26,0,0,0,10.13,2,25.17,25.17,0,0,0,9.7-1.86,23,23,0,0,0,8.23-5.94l4.07,4.36a25.36,25.36,0,0,1-9.78,7.16A32.17,32.17,0,0,1,607.89,190.35Z"/><path class="cls-1" d="M632.59,189.79l27.71-65.07h6.33l27.71,65.07h-6.76l-25.46-61.07h2.6l-25.46,61.07Zm10.91-17.38,1.91-5.58h35.25l1.9,5.58Z"/></g></g></svg>