<svg width="30" height="48" viewBox="0 0 30 48" fill="none" xmlns="http://www.w3.org/2000/svg">
<path d="M29.7233 17.173C29.7233 23.5224 28.0138 29.4259 25.0778 34.346C22.1412 29.4259 20.4307 23.5224 20.4307 17.173C20.4307 10.8236 22.1418 4.92008 25.0778 0C28.015 4.92008 29.7233 10.8236 29.7233 17.173Z" fill="#4B766E"/>
<path d="M14.7258 21.556C18.3825 25.1907 20.8781 29.8232 21.8978 34.8695C16.8382 33.8434 12.1935 31.3551 8.54318 27.715C4.89286 24.0748 2.39846 19.4439 1.37109 14.3999C6.43373 15.4188 11.0805 17.9088 14.7258 21.556Z" fill="#4B766E"/>
<path d="M10.4345 34.9543C14.0955 35.1168 17.6264 36.3559 20.5821 38.5155C17.437 40.3893 13.808 41.2986 10.1479 41.13C6.48774 40.9614 2.95838 39.7224 0 37.5675C3.14312 35.6887 6.7738 34.7795 10.4345 34.9543Z" fill="#4B766E"/>
<path d="M15.2781 43.3958C17.1202 42.3137 19.2424 41.7993 21.3772 41.9175C20.4372 43.8316 18.9528 45.4276 17.109 46.5065C15.2652 47.5853 13.1436 48.0993 11.0088 47.9843C11.9462 46.0681 13.4318 44.4715 15.2781 43.3958Z" fill="#4B766E"/>
</svg>
