<svg width="141" height="48" viewBox="0 0 141 48" fill="none" xmlns="http://www.w3.org/2000/svg">
<path d="M29.7233 17.173C29.7233 23.5224 28.0138 29.4259 25.0778 34.346C22.1412 29.4259 20.4307 23.5224 20.4307 17.173C20.4307 10.8236 22.1418 4.92008 25.0778 0C28.015 4.92008 29.7233 10.8236 29.7233 17.173Z" fill="#4B766E"/>
<path d="M14.7258 21.556C18.3825 25.1907 20.8781 29.8232 21.8978 34.8695C16.8382 33.8434 12.1935 31.3551 8.54318 27.715C4.89286 24.0748 2.39846 19.4439 1.37109 14.3999C6.43373 15.4188 11.0805 17.9088 14.7258 21.556Z" fill="#4B766E"/>
<path d="M10.4345 34.9543C14.0955 35.1168 17.6264 36.3559 20.5821 38.5155C17.437 40.3893 13.808 41.2986 10.1479 41.13C6.48774 40.9614 2.95838 39.7224 0 37.5675C3.14312 35.6887 6.7738 34.7795 10.4345 34.9543Z" fill="#4B766E"/>
<path d="M15.2781 43.3958C17.1202 42.3137 19.2424 41.7993 21.3772 41.9175C20.4372 43.8316 18.9528 45.4276 17.109 46.5065C15.2652 47.5853 13.1436 48.0993 11.0088 47.9843C11.9462 46.0681 13.4318 44.4715 15.2781 43.3958Z" fill="#4B766E"/>
<path d="M39.3232 19.0629V5.62277H45.1217C46.6193 5.62277 47.7777 5.92357 48.597 6.52518C49.429 7.12679 49.845 7.978 49.845 9.07881C49.845 9.80842 49.6722 10.4228 49.3266 10.922C48.9938 11.4212 48.533 11.7988 47.9441 12.0548C47.3681 12.3108 46.7345 12.4388 46.0433 12.4388L46.3697 11.978C47.2273 11.978 47.9633 12.1124 48.5778 12.3812C49.205 12.6373 49.6914 13.0277 50.037 13.5525C50.3826 14.0645 50.5554 14.7045 50.5554 15.4725C50.5554 16.6117 50.133 17.4949 49.2882 18.1221C48.4562 18.7493 47.1953 19.0629 45.5057 19.0629H39.3232ZM40.7441 17.8917H45.4865C46.6641 17.8917 47.5665 17.6933 48.1937 17.2965C48.821 16.8869 49.1346 16.2405 49.1346 15.3573C49.1346 14.4869 48.821 13.8533 48.1937 13.4565C47.5665 13.0469 46.6641 12.8421 45.4865 12.8421H40.5905V11.6708H45.0257C46.1009 11.6708 46.9329 11.466 47.5217 11.0564C48.1233 10.6468 48.4241 10.0388 48.4241 9.23241C48.4241 8.4132 48.1233 7.8052 47.5217 7.40839C46.9329 6.99879 46.1009 6.79398 45.0257 6.79398H40.7441V17.8917Z" fill="#4B766E"/>
<path d="M51.648 19.0629L57.7921 5.62277H59.1937L65.3377 19.0629H63.8401L58.1953 6.44838H58.7713L53.1264 19.0629H51.648ZM54.0672 15.4725L54.4896 14.3205H62.3041L62.7265 15.4725H54.0672Z" fill="#4B766E"/>
<path d="M67.5611 19.0629V5.62277H68.9819V17.8341H76.5084V19.0629H67.5611Z" fill="#4B766E"/>
<path d="M76.717 19.0629L82.8611 5.62277H84.2627L90.4068 19.0629H88.9092L83.2643 6.44838H83.8403L78.1954 19.0629H76.717ZM79.1363 15.4725L79.5587 14.3205H87.3732L87.7956 15.4725H79.1363Z" fill="#4B766E"/>
<path d="M92.6301 19.0629V5.62277H93.8013L103.075 17.2965H102.461V5.62277H103.862V19.0629H102.691L93.4365 7.38919H94.0509V19.0629H92.6301Z" fill="#4B766E"/>
<path d="M114.086 19.1781C113.075 19.1781 112.14 19.0117 111.283 18.6789C110.425 18.3333 109.683 17.8533 109.055 17.2389C108.428 16.6245 107.935 15.9013 107.577 15.0693C107.231 14.2373 107.059 13.3285 107.059 12.3428C107.059 11.3572 107.231 10.4484 107.577 9.61642C107.935 8.78441 108.428 8.0612 109.055 7.44679C109.695 6.83238 110.444 6.35878 111.302 6.02597C112.16 5.68037 113.094 5.50757 114.105 5.50757C115.078 5.50757 115.993 5.67397 116.851 6.00677C117.708 6.32678 118.432 6.81318 119.02 7.46599L118.118 8.3684C117.568 7.8052 116.96 7.40199 116.294 7.15879C115.628 6.90278 114.912 6.77478 114.144 6.77478C113.337 6.77478 112.588 6.91558 111.897 7.19719C111.206 7.46599 110.604 7.8564 110.092 8.3684C109.58 8.86761 109.177 9.45642 108.883 10.1348C108.601 10.8004 108.46 11.5364 108.46 12.3428C108.46 13.1493 108.601 13.8917 108.883 14.5701C109.177 15.2357 109.58 15.8245 110.092 16.3365C110.604 16.8357 111.206 17.2261 111.897 17.5077C112.588 17.7765 113.337 17.9109 114.144 17.9109C114.912 17.9109 115.628 17.7829 116.294 17.5269C116.96 17.2709 117.568 16.8613 118.118 16.2981L119.02 17.2005C118.432 17.8533 117.708 18.3461 116.851 18.6789C115.993 19.0117 115.072 19.1781 114.086 19.1781Z" fill="#4B766E"/>
<path d="M123.316 11.6324H130.421V12.8421H123.316V11.6324ZM123.47 17.8341H131.553V19.0629H122.049V5.62277H131.265V6.85158H123.47V17.8341Z" fill="#4B766E"/>
<path d="M39.3232 42.3772V28.9371H45.1217C46.6193 28.9371 47.7777 29.2379 48.597 29.8395C49.429 30.4411 49.845 31.2923 49.845 32.3931C49.845 33.1227 49.6722 33.7371 49.3266 34.2363C48.9938 34.7355 48.533 35.1131 47.9441 35.3691C47.3681 35.6251 46.7345 35.7531 46.0433 35.7531L46.3697 35.2923C47.2273 35.2923 47.9633 35.4267 48.5778 35.6955C49.205 35.9515 49.6914 36.3419 50.037 36.8668C50.3826 37.3788 50.5554 38.0188 50.5554 38.7868C50.5554 39.926 50.133 40.8092 49.2882 41.4364C48.4562 42.0636 47.1953 42.3772 45.5057 42.3772H39.3232ZM40.7441 41.206H45.4865C46.6641 41.206 47.5665 41.0076 48.1937 40.6108C48.821 40.2012 49.1346 39.5548 49.1346 38.6716C49.1346 37.8012 48.821 37.1676 48.1937 36.7707C47.5665 36.3611 46.6641 36.1563 45.4865 36.1563H40.5905V34.9851H45.0257C46.1009 34.9851 46.9329 34.7803 47.5217 34.3707C48.1233 33.9611 48.4241 33.3531 48.4241 32.5467C48.4241 31.7275 48.1233 31.1195 47.5217 30.7227C46.9329 30.3131 46.1009 30.1083 45.0257 30.1083H40.7441V41.206Z" fill="#4B766E"/>
<path d="M59.6737 42.4924C58.6625 42.4924 57.7217 42.326 56.8512 41.9932C55.9936 41.6476 55.2448 41.1676 54.6048 40.5532C53.9776 39.926 53.4848 39.2028 53.1264 38.3836C52.7808 37.5516 52.608 36.6427 52.608 35.6571C52.608 34.6715 52.7808 33.7691 53.1264 32.9499C53.4848 32.1179 53.9776 31.3947 54.6048 30.7803C55.2448 30.1531 55.9936 29.6731 56.8512 29.3403C57.7089 28.9947 58.6497 28.8219 59.6737 28.8219C60.6849 28.8219 61.6193 28.9947 62.4769 29.3403C63.3345 29.6731 64.0769 30.1467 64.7041 30.7611C65.3442 31.3755 65.837 32.0987 66.1826 32.9307C66.541 33.7627 66.7202 34.6715 66.7202 35.6571C66.7202 36.6427 66.541 37.5516 66.1826 38.3836C65.837 39.2156 65.3442 39.9388 64.7041 40.5532C64.0769 41.1676 63.3345 41.6476 62.4769 41.9932C61.6193 42.326 60.6849 42.4924 59.6737 42.4924ZM59.6737 41.2252C60.4801 41.2252 61.2225 41.0908 61.9009 40.822C62.5921 40.5404 63.1873 40.15 63.6865 39.6508C64.1985 39.1388 64.5953 38.55 64.8769 37.8844C65.1585 37.206 65.2993 36.4635 65.2993 35.6571C65.2993 34.8507 65.1585 34.1147 64.8769 33.4491C64.5953 32.7707 64.1985 32.1819 63.6865 31.6827C63.1873 31.1707 62.5921 30.7803 61.9009 30.5115C61.2225 30.2299 60.4801 30.0891 59.6737 30.0891C58.8673 30.0891 58.1185 30.2299 57.4273 30.5115C56.736 30.7803 56.1344 31.1707 55.6224 31.6827C55.1232 32.1819 54.7264 32.7707 54.432 33.4491C54.1504 34.1147 54.0096 34.8507 54.0096 35.6571C54.0096 36.4507 54.1504 37.1868 54.432 37.8652C54.7264 38.5436 55.1232 39.1388 55.6224 39.6508C56.1344 40.15 56.736 40.5404 57.4273 40.822C58.1185 41.0908 58.8673 41.2252 59.6737 41.2252Z" fill="#4B766E"/>
<path d="M72.3286 42.3772V30.1659H67.6053V28.9371H78.4727V30.1659H73.7494V42.3772H72.3286Z" fill="#4B766E"/>
<path d="M77.917 42.3772L84.0611 28.9371H85.4627L91.6068 42.3772H90.1092L84.4643 29.7627H85.0403L79.3955 42.3772H77.917ZM80.3363 38.7868L80.7587 37.6348H88.5732L88.9956 38.7868H80.3363Z" fill="#4B766E"/>
<path d="M93.8301 42.3772V28.9371H95.0014L104.275 40.6108H103.661V28.9371H105.062V42.3772H103.891L94.6365 30.7035H95.251V42.3772H93.8301Z" fill="#4B766E"/>
<path d="M109.449 42.3772V28.9371H110.87V42.3772H109.449Z" fill="#4B766E"/>
<path d="M121.08 42.4924C120.069 42.4924 119.134 42.326 118.277 41.9932C117.419 41.6476 116.677 41.1676 116.049 40.5532C115.422 39.9388 114.929 39.2156 114.571 38.3836C114.225 37.5516 114.052 36.6427 114.052 35.6571C114.052 34.6715 114.225 33.7627 114.571 32.9307C114.929 32.0987 115.422 31.3755 116.049 30.7611C116.689 30.1467 117.438 29.6731 118.296 29.3403C119.153 28.9947 120.088 28.8219 121.099 28.8219C122.072 28.8219 122.987 28.9883 123.845 29.3211C124.702 29.6411 125.425 30.1275 126.014 30.7803L125.112 31.6827C124.561 31.1195 123.953 30.7163 123.288 30.4731C122.622 30.2171 121.905 30.0891 121.137 30.0891C120.331 30.0891 119.582 30.2299 118.891 30.5115C118.2 30.7803 117.598 31.1707 117.086 31.6827C116.574 32.1819 116.171 32.7707 115.876 33.4491C115.595 34.1147 115.454 34.8507 115.454 35.6571C115.454 36.4635 115.595 37.206 115.876 37.8844C116.171 38.55 116.574 39.1388 117.086 39.6508C117.598 40.15 118.2 40.5404 118.891 40.822C119.582 41.0908 120.331 41.2252 121.137 41.2252C121.905 41.2252 122.622 41.0972 123.288 40.8412C123.953 40.5852 124.561 40.1756 125.112 39.6124L126.014 40.5148C125.425 41.1676 124.702 41.6604 123.845 41.9932C122.987 42.326 122.065 42.4924 121.08 42.4924Z" fill="#4B766E"/>
<path d="M126.555 42.3772L132.699 28.9371H134.101L140.245 42.3772H138.747L133.102 29.7627H133.678L128.034 42.3772H126.555ZM128.974 38.7868L129.397 37.6348H137.211L137.634 38.7868H128.974Z" fill="#4B766E"/>
</svg>
