<svg width="229" height="200" viewBox="0 0 229 200" fill="none" xmlns="http://www.w3.org/2000/svg">
<path d="M36.2858 0H0V121.9H36.2858V0Z" fill="#1367EA"/>
<path d="M109.558 0H73.2725V121.9H109.558V0Z" fill="#1367EA"/>
<path d="M63.8509 0H45.708V121.9H63.8509V0Z" fill="#1367EA"/>
<path d="M155.266 0H118.98V121.9H155.266V0Z" fill="#FCCC00"/>
<path d="M228.538 0H192.252V121.9H228.538V0Z" fill="#FCCC00"/>
<path d="M182.83 0H164.688V121.9H182.83V0Z" fill="#FCCC00"/>
<path d="M4.39938 154.565C4.47725 155.772 4.78872 156.823 5.41165 157.68C6.03458 158.536 6.96898 159.198 8.21484 159.665C9.49964 160.132 11.1738 160.366 13.2372 160.366C16.2351 160.366 18.3764 160.016 19.6612 159.315C20.9071 158.614 21.5689 157.641 21.5689 156.434C21.5689 155.616 21.3743 154.954 20.946 154.448C20.5567 153.981 19.778 153.592 18.649 153.28C17.5199 153.008 15.9236 152.852 13.8602 152.852H9.07137V149.27H13.8991C15.729 149.27 17.1306 149.153 18.1039 148.881C19.0772 148.608 19.778 148.258 20.1284 147.752C20.5177 147.246 20.6735 146.623 20.6735 145.805C20.6735 144.598 20.0895 143.625 18.8826 142.885C17.7146 142.145 15.7679 141.795 13.0426 141.795C11.0959 141.795 9.49964 142.028 8.29271 142.457C7.08578 142.924 6.19031 143.547 5.60632 144.403C5.02232 145.26 4.67192 146.311 4.59405 147.557H0.389261C0.544994 144.676 1.67406 142.418 3.73752 140.744C5.80098 139.07 8.95457 138.252 13.1204 138.252C15.8068 138.252 18.026 138.563 19.778 139.225C21.53 139.887 22.8148 140.744 23.6324 141.795C24.45 142.846 24.8783 144.053 24.8783 145.338C24.8783 146.934 24.3721 148.219 23.3599 149.114C22.3476 150.049 21.0239 150.633 19.4276 150.944V151.022C21.2185 151.334 22.7369 151.956 23.9439 152.852C25.1508 153.786 25.7737 155.11 25.7737 156.862C25.7737 158.147 25.3455 159.315 24.4889 160.366C23.6324 161.417 22.3087 162.235 20.4399 162.858C18.5711 163.481 16.1962 163.792 13.2372 163.792C8.87671 163.792 5.64525 162.975 3.54285 161.339C1.44046 159.704 0.350327 157.407 0.272461 154.487H4.39938V154.565Z" fill="black"/>
<path d="M43.8779 138.68C45.9413 138.68 47.6544 138.992 49.0171 139.576C50.3797 140.16 51.4309 141.016 52.0928 142.106C52.7936 143.196 53.105 144.481 53.105 146C53.105 147.479 52.7547 148.764 52.0928 149.815C51.392 150.905 50.3797 151.762 49.0171 152.385C47.6544 153.008 45.9413 153.319 43.8779 153.319H34.3782V163.442H30.3291V138.68H43.8779ZM43.7611 149.815C45.552 149.815 46.8757 149.504 47.6933 148.842C48.5109 148.18 48.9392 147.245 48.9392 146.039C48.9392 144.832 48.5109 143.897 47.6933 143.235C46.8757 142.573 45.552 142.262 43.7611 142.262H34.3392V149.854L43.7611 149.815Z" fill="black"/>
<path d="M70.1965 163.87C67.3933 163.87 64.9794 163.364 62.9549 162.352C60.9304 161.339 59.373 159.899 58.3219 158.069C57.2707 156.239 56.7256 154.059 56.7256 151.606V150.594C56.7256 148.102 57.2707 145.961 58.3219 144.131C59.373 142.301 60.9304 140.86 62.9549 139.848C64.9794 138.836 67.3933 138.33 70.1965 138.33C73.0386 138.33 75.4914 138.836 77.5159 139.848C79.5405 140.86 81.0978 142.301 82.149 144.131C83.2002 145.961 83.7453 148.141 83.7453 150.594V151.606C83.7453 154.098 83.2002 156.239 82.149 158.069C81.0978 159.899 79.5405 161.339 77.5159 162.352C75.4914 163.364 73.0386 163.87 70.1965 163.87ZM70.2354 160.249C73.1943 160.249 75.4914 159.471 77.0877 157.952C78.6839 156.434 79.5015 154.292 79.5015 151.528V150.633C79.5015 147.868 78.6839 145.688 77.0877 144.17C75.4914 142.651 73.1944 141.912 70.1965 141.912C67.1597 141.912 64.8237 142.69 63.2274 144.209C61.6312 145.727 60.8136 147.868 60.8136 150.633V151.528C60.8136 154.292 61.6312 156.434 63.2274 157.952C64.9016 159.471 67.1986 160.249 70.2354 160.249Z" fill="black"/>
<path d="M102.122 149.192C105.197 149.192 107.495 149.854 109.013 151.139C110.57 152.424 111.31 154.176 111.31 156.317C111.31 158.497 110.531 160.249 109.013 161.534C107.456 162.819 105.159 163.481 102.122 163.481H88.4951V138.719H109.402V142.262H92.5052V149.231L102.122 149.192ZM102.005 159.977C103.835 159.977 105.197 159.665 106.015 159.003C106.833 158.341 107.261 157.446 107.261 156.278C107.261 155.11 106.833 154.215 106.015 153.553C105.197 152.93 103.874 152.618 102.005 152.618H92.5052V159.977H102.005Z" fill="black"/>
<path d="M119.525 138.68H140.822V163.442H136.734V142.262H123.418L122.951 153.008C122.873 155.616 122.562 157.719 121.939 159.315C121.355 160.872 120.537 162.001 119.525 162.702C118.513 163.364 117.306 163.714 115.865 163.714C115.476 163.714 115.087 163.675 114.736 163.636C114.386 163.597 114.074 163.52 113.841 163.442V159.782C113.88 159.782 113.919 159.782 113.997 159.782C114.035 159.782 114.113 159.782 114.152 159.782C114.658 159.821 115.048 159.821 115.32 159.821C116.099 159.821 116.761 159.626 117.228 159.237C117.734 158.848 118.123 158.147 118.396 157.096C118.707 156.044 118.863 154.565 118.941 152.618L119.525 138.68Z" fill="black"/>
<path d="M146.739 163.442V138.68H167.101V142.223H150.788V149.192H165.661V152.657H150.788V159.938H167.724V163.52H146.739V163.442Z" fill="black"/>
<path d="M192.486 138.68H196.613V163.442H192.486V152.852H176.212V163.442H172.124V138.68H176.212V149.27H192.486V138.68Z" fill="black"/>
<path d="M214.833 163.87C212.03 163.87 209.616 163.364 207.592 162.352C205.567 161.339 204.01 159.899 202.959 158.069C201.907 156.239 201.362 154.059 201.362 151.606V150.594C201.362 148.102 201.907 145.961 202.959 144.131C204.01 142.301 205.567 140.86 207.592 139.848C209.616 138.836 212.03 138.33 214.833 138.33C217.675 138.33 220.128 138.836 222.153 139.848C224.177 140.86 225.735 142.301 226.786 144.131C227.837 145.961 228.382 148.141 228.382 150.594V151.606C228.382 154.098 227.837 156.239 226.786 158.069C225.735 159.899 224.177 161.339 222.153 162.352C220.128 163.364 217.714 163.87 214.833 163.87ZM214.911 160.249C217.87 160.249 220.167 159.471 221.763 157.952C223.36 156.434 224.177 154.292 224.177 151.528V150.633C224.177 147.868 223.36 145.688 221.763 144.17C220.167 142.651 217.87 141.912 214.872 141.912C211.835 141.912 209.499 142.69 207.903 144.209C206.307 145.727 205.489 147.868 205.489 150.633V151.528C205.489 154.292 206.307 156.434 207.903 157.952C209.538 159.471 211.874 160.249 214.911 160.249Z" fill="black"/>
<path d="M34.534 187.191C36.0913 187.502 37.454 188.125 38.622 189.099C39.79 190.072 40.4129 191.396 40.4129 193.07C40.4129 194.277 40.0625 195.406 39.4007 196.379C38.7388 197.392 37.6876 198.17 36.2471 198.715C34.8065 199.299 33.0156 199.572 30.8743 199.572H17.1309V174.81H30.8743C32.782 174.81 34.4172 175.083 35.7409 175.667C37.0647 176.251 38.0769 176.991 38.7388 178.003C39.4007 178.976 39.7121 180.105 39.7121 181.351C39.7121 182.402 39.4396 183.337 38.9335 184.154C38.4273 184.972 37.7655 185.634 36.9868 186.14C36.2081 186.646 35.3905 186.957 34.534 187.191ZM30.7186 178.275H21.141V185.556H30.9911C32.5484 185.556 33.7164 185.244 34.4562 184.582C35.2348 183.921 35.5852 183.064 35.5852 181.935C35.5852 180.767 35.1959 179.872 34.4172 179.21C33.6775 178.587 32.4316 178.275 30.7186 178.275ZM30.7186 196.107C32.7431 196.107 34.1836 195.795 35.0401 195.172C35.8967 194.549 36.3249 193.654 36.3249 192.447C36.3249 191.318 35.8967 190.422 35.0401 189.8C34.1836 189.138 32.821 188.826 30.9911 188.826H21.141V196.107H30.7186Z" fill="black"/>
<path d="M76.5422 174.81H81.1363L70.6243 193.381C69.7289 195.017 68.8723 196.301 68.0937 197.197C67.2761 198.131 66.3806 198.832 65.4073 199.299C64.395 199.766 63.1881 200 61.7086 200C60.6574 200 59.6452 199.883 58.6718 199.611V196.029C59.6452 196.146 60.5017 196.224 61.2025 196.224C61.9812 196.224 62.6041 196.146 63.1102 195.951C63.6164 195.756 64.0836 195.445 64.4729 195.017C64.8622 194.588 65.2905 194.004 65.7577 193.187L55.1289 174.81H59.9566L68.2494 189.838L76.5422 174.81Z" fill="black"/>
<path d="M104.496 199.572L94.6463 187.113L88.9231 192.33V199.611H84.874V174.81H88.9231V187.619L103.056 174.81H108.779L97.8388 184.699L109.636 199.611H104.496V199.572Z" fill="black"/>
<path d="M127.156 174.81C129.22 174.81 130.933 175.122 132.295 175.706C133.658 176.29 134.709 177.146 135.371 178.236C136.072 179.326 136.383 180.611 136.383 182.13C136.383 183.609 136.033 184.894 135.371 185.945C134.67 187.035 133.658 187.892 132.295 188.515C130.933 189.138 129.22 189.449 127.156 189.449H117.656V199.572H113.607V174.81H127.156ZM127.078 185.945C128.869 185.945 130.193 185.634 131.011 184.972C131.828 184.31 132.256 183.376 132.256 182.169C132.256 180.962 131.828 180.027 131.011 179.365C130.193 178.704 128.869 178.392 127.078 178.392H117.656V185.984L127.078 185.945Z" fill="black"/>
<path d="M162.079 199.572H157.68L154.916 193.381H142.768L140.043 199.572H135.683L146.818 174.81H150.789L162.079 199.572ZM148.803 179.288L144.209 189.994H153.475L148.803 179.288Z" fill="black"/>
<path d="M166.907 171.423C166.439 171.851 165.855 172.085 165.077 172.085C164.298 172.085 163.714 171.851 163.247 171.423C162.78 170.995 162.585 170.411 162.585 169.671C162.585 168.97 162.819 168.386 163.247 167.958C163.714 167.53 164.298 167.296 165.077 167.296C165.855 167.296 166.439 167.53 166.907 167.958C167.374 168.386 167.568 168.97 167.568 169.671C167.568 170.411 167.335 170.995 166.907 171.423ZM170.8 174.81H166.712V199.572H170.8V174.81ZM174.343 171.423C173.876 171.851 173.292 172.085 172.552 172.085C171.773 172.085 171.15 171.851 170.683 171.423C170.216 170.995 170.021 170.411 170.021 169.671C170.021 168.97 170.255 168.386 170.683 167.958C171.15 167.53 171.734 167.296 172.552 167.296C173.331 167.296 173.915 167.53 174.382 167.958C174.849 168.386 175.044 168.97 175.044 169.671C175.044 170.411 174.81 170.995 174.343 171.423Z" fill="black"/>
<path d="M197.274 174.81H201.401V199.572H197.274V188.982H181V199.572H176.912V174.81H181V185.4H197.274V174.81Z" fill="black"/>
<path d="M211.407 199.572H207.319V174.81H211.407V199.572Z" fill="black"/>
</svg>
