<svg xmlns="http://www.w3.org/2000/svg" viewBox="0 0 214.42 205.78"><defs><style>.cls-1{fill:#d3ede6;}</style></defs><g id="Layer_2" data-name="Layer 2"><g id="Layer_1-2" data-name="Layer 1"><path class="cls-1" d="M145.6,0A138.45,138.45,0,0,1,137,73.05,138.31,138.31,0,0,1,92.77,131.8a138.32,138.32,0,0,1,8.59-73A138.25,138.25,0,0,1,145.6,0Z"/><path class="cls-1" d="M214.42,91.72a108.19,108.19,0,0,1-48,40.07,108.8,108.8,0,0,1-62.25,6.91,108.55,108.55,0,0,1,110.25-47Z"/><path class="cls-1" d="M184.05,182.74a77.36,77.36,0,0,1-80.44-28,77.36,77.36,0,0,1,80.44,28Z"/><path class="cls-1" d="M125.78,205.78a45.06,45.06,0,0,1-30.46-39.23,45.06,45.06,0,0,1,30.46,39.23Z"/><path class="cls-1" d="M42.54,108.19c.73-8-1.78-14.08-4.14-19.77s-4.42-10.69-9.61-15c-2.72-2.26-7.85-6.51-13.89-5.38-5.6,1.06-8.72,6.12-10.6,9.16C.66,83.12.39,88.86.14,93.9s-.53,11,2.56,17.68A31.8,31.8,0,0,0,13.11,124c2.91,2.12,5.36,3.9,9.07,4.42,7.82,1.09,13.76-4.46,14.41-5.1C41.59,118.52,42.16,112.31,42.54,108.19Z"/><path class="cls-1" d="M50.42,84c9,3.3,17-1.28,17.66-1.64,5.4-3.18,7.67-8,9.09-11C82,61.3,80,51.43,78.79,45.34a49,49,0,0,0-7.51-18c-4.26-6.23-7.37-7.5-8.19-7.81-6.26-2.35-12.4,1.08-13.53,1.71-4.55,2.54-6.62,6.24-9.66,11.7C37.63,37,35,41.75,34,48.7A37.84,37.84,0,0,0,36.93,69C39.19,73.91,42.46,81.08,50.42,84Z"/><path class="cls-1" d="M67.17,142.82c-.44-1.81-1.88-7.75,1.74-12.14a11.83,11.83,0,0,1,13.67-3.15,11.32,11.32,0,0,1,5.1,5.13L85.52,93.51c-9.72.82-16.46,5.84-19.42,8.1-6.71,5.15-5.56,7.42-14.15,17.5C40.66,132.37,35.84,131.77,31.79,141a31.77,31.77,0,0,0-2,20.55c.61,2.41,3.06,11.39,11.62,16.86,6.56,4.19,13.22,4,19.46,3.76,15.65-.62,16.26-6.78,29.1-7.48l-.76-13.8C87.67,160.47,70.35,155.88,67.17,142.82Z"/></g></g></svg>