<svg width="600" height="300" viewBox="0 0 600 300" fill="none" xmlns="http://www.w3.org/2000/svg">
  <!-- Left half - mirrored version -->
  <g transform="translate(0, 0)">
    <!-- Simple elegant leaf shape -->
    <path d="M150 80 C150 80 130 100 130 150 C130 200 150 220 150 220 C150 220 170 200 170 150 C170 100 150 80 150 80 Z" fill="#385334" fill-opacity="0.08"/>
    
    <!-- Simple center line -->
    <path d="M150 80 L150 220" stroke="#385334" stroke-opacity="0.06" stroke-width="1"/>
    
    <!-- Simple side details -->
    <ellipse cx="140" cy="120" rx="4" ry="3" fill="#385334" fill-opacity="0.05"/>
    <ellipse cx="160" cy="120" rx="4" ry="3" fill="#385334" fill-opacity="0.05"/>
    <ellipse cx="145" cy="150" rx="3" ry="2" fill="#385334" fill-opacity="0.05"/>
    <ellipse cx="155" cy="150" rx="3" ry="2" fill="#385334" fill-opacity="0.05"/>
  </g>
  
  <!-- Gap between halves -->
  
  <!-- Right half - original version -->
  <g transform="translate(305, 0)">
    <!-- Simple elegant leaf shape -->
    <path d="M150 80 C150 80 130 100 130 150 C130 200 150 220 150 220 C150 220 170 200 170 150 C170 100 150 80 150 80 Z" fill="#385334" fill-opacity="0.08"/>
    
    <!-- Simple center line -->
    <path d="M150 80 L150 220" stroke="#385334" stroke-opacity="0.06" stroke-width="1"/>
    
    <!-- Simple side details -->
    <ellipse cx="140" cy="120" rx="4" ry="3" fill="#385334" fill-opacity="0.05"/>
    <ellipse cx="160" cy="120" rx="4" ry="3" fill="#385334" fill-opacity="0.05"/>
    <ellipse cx="145" cy="150" rx="3" ry="2" fill="#385334" fill-opacity="0.05"/>
    <ellipse cx="155" cy="150" rx="3" ry="2" fill="#385334" fill-opacity="0.05"/>
  </g>
</svg>
