<svg width="350" height="567" viewBox="0 0 350 567" fill="none" xmlns="http://www.w3.org/2000/svg">
<path d="M0.000228882 202.856C0.000228882 277.858 20.1298 347.594 54.703 405.712C89.283 347.594 109.426 277.858 109.426 202.856C109.426 127.854 89.2763 58.1185 54.703 0C20.1165 58.1185 0.000228882 127.854 0.000228882 202.856Z" fill="#385334" fill-opacity="0.04"/>
<path d="M178.882 255.689C135.821 298.625 106.435 353.346 94.4269 412.955C154.007 400.835 208.701 371.442 251.685 328.443C294.67 285.443 324.043 230.741 336.141 171.158C276.525 183.194 221.807 212.607 178.882 255.689Z" fill="#385334" fill-opacity="0.04"/>
<path d="M227.128 412.893C184.018 414.813 142.44 429.45 107.635 454.959C144.67 477.094 187.403 487.835 230.503 485.844C273.603 483.852 315.163 469.216 350 443.761C312.988 421.569 270.235 410.828 227.128 412.893Z" fill="#385334" fill-opacity="0.04"/>
<path d="M170.087 512.611C148.396 499.83 123.406 493.754 98.2675 495.149C109.336 517.76 126.816 536.613 148.528 549.357C170.239 562.101 195.222 568.172 220.361 566.813C209.323 544.179 191.83 525.319 170.087 512.611Z" fill="#385334" fill-opacity="0.04"/>
</svg>
