<svg width="257" height="417" viewBox="0 0 257 417" fill="none" xmlns="http://www.w3.org/2000/svg">
<path d="M257 149.19C257 204.351 242.219 255.638 216.833 298.381C191.441 255.638 176.65 204.351 176.65 149.19C176.65 94.0302 191.446 42.7432 216.833 0C242.229 42.7432 257 94.0302 257 149.19Z" fill="#385334" fill-opacity="0.04"/>
<path d="M125.65 188.046C157.268 219.623 178.846 259.868 187.664 303.707C143.915 294.794 103.754 273.177 72.191 241.553C40.6282 209.929 19.06 169.698 10.1768 125.878C53.9514 134.73 94.1304 156.361 125.65 188.046Z" fill="#385334" fill-opacity="0.04"/>
<path d="M90.223 303.662C121.878 305.073 152.408 315.838 177.965 334.599C150.771 350.878 119.393 358.778 87.7449 357.313C56.097 355.848 25.58 345.084 0 326.364C27.1773 310.042 58.5705 302.143 90.223 303.662Z" fill="#385334" fill-opacity="0.04"/>
<path d="M132.107 376.999C148.035 367.599 166.384 363.131 184.843 364.157C176.716 380.786 163.88 394.651 147.938 404.024C131.995 413.396 113.651 417.861 95.1914 416.862C103.297 400.216 116.142 386.345 132.107 376.999Z" fill="#385334" fill-opacity="0.04"/>
</svg>
