<svg width="24" height="24" viewBox="0 0 24 24" fill="none" xmlns="http://www.w3.org/2000/svg">
<path fill-rule="evenodd" clip-rule="evenodd" d="M17.6 0.618284C13.9117 -0.206176 10.0869 -0.206176 6.39858 0.618284L6.00117 0.706207C4.96342 0.937541 4.01023 1.45235 3.24773 2.19333C2.48523 2.9343 1.94334 3.87236 1.68239 4.90307C0.7491 8.58728 0.7491 12.4461 1.68239 16.1303C1.93127 17.1132 2.43592 18.0128 3.14505 18.7376C3.85417 19.4624 4.74252 19.9865 5.71982 20.2568L6.26494 23.5111C6.28234 23.6145 6.32713 23.7112 6.39464 23.7914C6.46215 23.8715 6.54991 23.9321 6.64878 23.9668C6.74766 24.0016 6.85403 24.0091 6.95683 23.9888C7.05963 23.9684 7.15509 23.9209 7.23327 23.8511L10.4348 20.9871C12.8382 21.1322 15.25 20.9401 17.6 20.4162L17.9986 20.3283C19.0363 20.097 19.9895 19.5822 20.752 18.8412C21.5145 18.1002 22.0564 17.1621 22.3174 16.1314C23.2506 12.4472 23.2506 8.58846 22.3174 4.90424C22.0563 3.87339 21.5143 2.93522 20.7515 2.19423C19.9888 1.45325 19.0354 0.93852 17.9974 0.707379L17.6 0.618284ZM7.38801 4.80811C7.17013 4.77621 6.9479 4.82008 6.75848 4.93238H6.74207C6.30245 5.19029 5.90621 5.51502 5.56859 5.89719C5.28724 6.22192 5.13484 6.55016 5.09498 6.86669C5.07153 7.05426 5.08794 7.24417 5.14304 7.42353L5.16414 7.43526C5.48067 8.3649 5.89332 9.25937 6.39741 10.1011C7.04769 11.2832 7.84753 12.3765 8.7772 13.3542L8.80533 13.3941L8.84988 13.4269L8.87684 13.4586L8.90967 13.4867C9.89087 14.4191 10.9868 15.2227 12.171 15.8782C13.525 16.6156 14.3468 16.9638 14.8404 17.1091V17.1162C14.9846 17.1607 15.1159 17.1807 15.2483 17.1807C15.6689 17.1505 16.067 16.9795 16.3784 16.6953C16.7594 16.3577 17.0818 15.9603 17.3327 15.5183V15.5101C17.5683 15.0646 17.4886 14.645 17.1487 14.3601C16.4663 13.7627 15.7279 13.2327 14.9435 12.7775C14.4183 12.4926 13.8849 12.6649 13.6692 12.9533L13.2085 13.5348C12.9717 13.8232 12.5427 13.7833 12.5427 13.7833L12.5309 13.7903C9.32936 12.9732 8.47474 9.73181 8.47474 9.73181C8.47474 9.73181 8.43488 9.29102 8.73148 9.06594L9.30825 8.6017C9.58492 8.37662 9.77718 7.84439 9.48058 7.3192C9.0264 6.53542 8.49758 5.79735 7.90148 5.11526C7.77109 4.95509 7.58848 4.84594 7.38567 4.80694M12.797 3.399C12.6416 3.399 12.4925 3.46075 12.3826 3.57068C12.2726 3.6806 12.2109 3.8297 12.2109 3.98515C12.2109 4.14061 12.2726 4.2897 12.3826 4.39963C12.4925 4.50955 12.6416 4.57131 12.797 4.57131C14.28 4.57131 15.5109 5.05547 16.4851 5.98394C16.9857 6.49155 17.3761 7.09294 17.6316 7.75178C17.8884 8.41179 18.0056 9.11635 17.9751 9.82207C17.9719 9.89905 17.9839 9.97591 18.0103 10.0483C18.0368 10.1206 18.0773 10.187 18.1294 10.2438C18.2347 10.3583 18.3812 10.4263 18.5367 10.4328C18.6921 10.4394 18.8438 10.3839 18.9583 10.2786C19.0729 10.1733 19.1409 10.0268 19.1474 9.87131C19.1824 9.00329 19.0384 8.13735 18.7242 7.3274C18.4087 6.51334 17.9281 5.77335 17.3128 5.15394L17.3011 5.14222C16.0924 3.9875 14.5625 3.399 12.797 3.399ZM12.7572 5.32627C12.6017 5.32627 12.4526 5.38803 12.3427 5.49795C12.2328 5.60788 12.171 5.75697 12.171 5.91243C12.171 6.06789 12.2328 6.21698 12.3427 6.3269C12.4526 6.43683 12.6017 6.49858 12.7572 6.49858H12.7771C13.8463 6.57478 14.6247 6.93116 15.1698 7.51615C15.729 8.11871 16.0185 8.86782 15.9963 9.79394C15.9927 9.9494 16.051 10.0999 16.1584 10.2124C16.2658 10.3248 16.4135 10.39 16.5689 10.3936C16.7244 10.3972 16.8749 10.3388 16.9874 10.2314C17.0998 10.124 17.165 9.97636 17.1686 9.8209C17.1967 8.60522 16.8052 7.556 16.0291 6.71898V6.71663C15.2354 5.86554 14.1464 5.41537 12.8357 5.32745L12.8158 5.3251L12.7572 5.32627ZM12.7349 7.28989C12.6565 7.28297 12.5774 7.29192 12.5025 7.31622C12.4276 7.34052 12.3584 7.37966 12.2989 7.43131C12.2395 7.48297 12.1911 7.54606 12.1565 7.61684C12.122 7.68762 12.1021 7.76463 12.098 7.84328C12.0939 7.92192 12.1057 8.00058 12.1327 8.07456C12.1597 8.14855 12.2013 8.21634 12.255 8.27389C12.3088 8.33143 12.3736 8.37756 12.4456 8.40951C12.5175 8.44146 12.5952 8.45859 12.674 8.45985C13.164 8.48564 13.477 8.63336 13.6739 8.83148C13.872 9.03077 14.0198 9.35081 14.0467 9.85138C14.0482 9.93004 14.0655 10.0076 14.0975 10.0794C14.1296 10.1513 14.1758 10.2159 14.2334 10.2695C14.291 10.3231 14.3588 10.3646 14.4327 10.3914C14.5067 10.4183 14.5853 10.43 14.6639 10.4258C14.7424 10.4216 14.8193 10.4017 14.89 10.3672C14.9607 10.3326 15.0237 10.2842 15.0753 10.2248C15.1269 10.1654 15.166 10.0962 15.1903 10.0214C15.2146 9.94658 15.2236 9.86762 15.2167 9.78925C15.1792 9.08587 14.9588 8.46454 14.5074 8.00734C14.0538 7.55014 13.436 7.3274 12.7349 7.28989Z" fill="white" fill-opacity="0.8"/>
</svg>
