<svg width="146" height="70" viewBox="0 0 146 70" fill="none" xmlns="http://www.w3.org/2000/svg">
<path d="M49.2401 26.9704C49.2392 26.8749 49.2574 26.7802 49.2937 26.6918C49.33 26.6034 49.3836 26.5231 49.4514 26.4556C49.5192 26.3881 49.5998 26.3347 49.6885 26.2987C49.7773 26.2626 49.8723 26.2445 49.9681 26.2455H54.0126C55.7297 26.2455 56.8645 26.8259 57.5917 27.5213C58.2316 28.1887 58.6681 29.2617 58.6681 30.1901C58.664 31.1923 58.2801 32.1559 57.5934 32.8878C57.4608 33.0275 57.3146 33.1537 57.1569 33.2646C57.7641 33.5012 58.3179 33.8562 58.7859 34.3088C59.6588 35.179 60.0665 36.197 60.0665 37.3545C60.0708 37.8971 59.9676 38.4352 59.7628 38.938C59.558 39.4408 59.2557 39.8984 58.8732 40.2844C58.0002 41.1251 56.6916 41.7621 54.4795 41.7621H49.9681C49.8722 41.7631 49.7771 41.745 49.6883 41.7089C49.5996 41.6728 49.5189 41.6194 49.4511 41.5518C49.3833 41.4842 49.3297 41.4038 49.2935 41.3153C49.2573 41.2268 49.2391 41.132 49.2401 41.0364V26.9704ZM57.2137 30.1901C57.2032 29.584 56.9642 29.004 56.5442 28.5655C56.0204 28.0434 55.2051 27.6937 54.0126 27.6937H50.6953V32.7695H54.2745C55.2627 32.7113 56.1077 32.277 56.5442 31.8411C56.951 31.47 57.2137 30.828 57.2137 30.1901ZM50.6953 40.3132H54.4779C56.1653 40.3132 57.1841 39.9027 57.824 39.2402C58.0749 38.9938 58.2736 38.6997 58.4086 38.3754C58.5435 38.0511 58.6119 37.7031 58.6096 37.352C58.6096 36.5984 58.3189 35.9313 57.7375 35.3506C57.0383 34.6544 55.8433 34.2193 54.5652 34.2193H50.6945L50.6953 40.3132Z" fill="#FFEBD8"/>
<path d="M66.6121 41.7637C63.9059 41.7637 63.0626 39.9938 63.0626 38.6885C63.0626 37.7608 63.3821 36.861 64.0805 36.1944C65.0407 35.2955 66.6409 34.5994 69.0275 34.5994C69.6674 34.5994 70.3073 34.6281 71.0041 34.6864C70.8591 32.946 69.8692 31.8435 67.8614 31.8435C67.142 31.8514 66.4272 31.9589 65.7375 32.1628C65.5604 32.2347 65.3746 32.2833 65.1849 32.3073C64.806 32.3073 64.428 31.9592 64.428 31.6111C64.4235 31.4539 64.4689 31.2992 64.5576 31.1691C64.6463 31.039 64.7738 30.94 64.9221 30.8862C65.5909 30.6835 66.8163 30.3937 67.8606 30.3937C71.0329 30.3937 72.4873 32.3081 72.4873 35.0927V37.7321C72.4873 39.0669 72.7788 39.8788 73.3602 40.5167C73.4258 40.5808 73.4777 40.6575 73.5128 40.7422C73.5479 40.8268 73.5655 40.9177 73.5645 41.0093C73.5609 41.2005 73.483 41.383 73.3472 41.5182C73.2114 41.6534 73.0284 41.7308 72.8365 41.7342C72.738 41.7327 72.6409 41.7114 72.5509 41.6717C72.4609 41.6319 72.3799 41.5744 72.3127 41.5026C71.8669 41.0182 71.53 40.4444 71.3244 39.8197C70.0166 41.0675 68.4165 41.7637 66.6121 41.7637ZM71.0354 36.1362C70.3073 36.0787 69.6674 36.0491 69.0275 36.0491C67.1647 36.0491 65.856 36.4596 65.128 37.1804C64.9274 37.3762 64.7695 37.6112 64.6644 37.8708C64.5592 38.1303 64.509 38.4087 64.517 38.6885C64.517 39.4716 65.1865 40.3131 66.6121 40.3131C68.2707 40.3131 69.8132 39.5882 71.0354 38.0219V36.1362Z" fill="#FFEBD8"/>
<path d="M78.0768 25.491C78.1725 25.4901 78.2675 25.5083 78.3561 25.5444C78.4447 25.5805 78.5252 25.6339 78.5929 25.7014C78.6606 25.7688 78.7142 25.8491 78.7504 25.9375C78.7866 26.0258 78.8049 26.1205 78.804 26.2159V41.038C78.805 41.1335 78.7868 41.2282 78.7507 41.3167C78.7145 41.4051 78.661 41.4855 78.5932 41.553C78.5255 41.6206 78.445 41.674 78.3563 41.7102C78.2676 41.7464 78.1726 41.7646 78.0768 41.7637C77.8862 41.7558 77.7056 41.6768 77.5707 41.5424C77.4359 41.408 77.3566 41.2279 77.3488 41.038V26.2159C77.3524 26.0246 77.4302 25.8422 77.566 25.707C77.7018 25.5718 77.8849 25.4944 78.0768 25.491Z" fill="#FFEBD8"/>
<path d="M86.4564 41.7637C83.7502 41.7637 82.9069 39.9938 82.9069 38.6885C82.9069 37.7608 83.2264 36.861 83.9248 36.1944C84.885 35.2955 86.4852 34.5994 88.8718 34.5994C89.5117 34.5994 90.1516 34.6281 90.8484 34.6864C90.7034 32.946 89.7135 31.8435 87.7057 31.8435C86.9863 31.8514 86.2715 31.9589 85.5818 32.1628C85.4046 32.2347 85.2189 32.2833 85.0292 32.3073C84.6503 32.3073 84.2723 31.9592 84.2723 31.6111C84.2678 31.4539 84.3131 31.2992 84.4018 31.1691C84.4905 31.039 84.6181 30.94 84.7664 30.8862C85.4352 30.6835 86.6606 30.3937 87.7049 30.3937C90.8764 30.3937 92.3316 32.3081 92.3316 35.0927V37.7321C92.3316 39.0669 92.6223 39.8788 93.2045 40.5167C93.27 40.5809 93.3218 40.6576 93.3567 40.7423C93.3917 40.8269 93.4091 40.9177 93.408 41.0093C93.4044 41.2004 93.3266 41.3827 93.191 41.5179C93.0554 41.6531 92.8725 41.7306 92.6808 41.7342C92.5823 41.7327 92.4852 41.7114 92.3952 41.6717C92.3052 41.6319 92.2242 41.5744 92.157 41.5026C91.7112 41.0182 91.3743 40.4444 91.1687 39.8197C89.8609 41.0675 88.2608 41.7637 86.4564 41.7637ZM90.8788 36.1362C90.1516 36.0787 89.5117 36.0491 88.8718 36.0491C87.009 36.0491 85.6995 36.4596 84.9723 37.1804C84.7717 37.3762 84.6138 37.6112 84.5087 37.8708C84.4035 38.1303 84.3533 38.4087 84.3613 38.6885C84.3613 39.4716 85.0308 40.3131 86.4564 40.3131C88.115 40.3131 89.6575 39.5882 90.8788 38.0219V36.1362Z" fill="#FFEBD8"/>
<path d="M105.37 35.2372C105.37 32.8565 104.382 31.8435 102.839 31.8435C101.209 31.8435 99.6959 32.859 98.4737 34.0772V41.038C98.4747 41.1336 98.4565 41.2284 98.4203 41.3169C98.3841 41.4054 98.3305 41.4858 98.2627 41.5534C98.1949 41.6209 98.1142 41.6744 98.0255 41.7105C97.9367 41.7466 97.8416 41.7647 97.7457 41.7637C97.5553 41.7556 97.3749 41.6766 97.2402 41.5422C97.1055 41.4078 97.0264 41.2278 97.0185 41.038V31.1186C97.0219 30.9273 97.0996 30.7448 97.2352 30.6094C97.3708 30.4741 97.5538 30.3964 97.7457 30.3929C97.8416 30.3919 97.9367 30.41 98.0255 30.4461C98.1142 30.4822 98.1949 30.5356 98.2627 30.6032C98.3305 30.6708 98.3841 30.7512 98.4203 30.8397C98.4565 30.9282 98.4747 31.023 98.4737 31.1186V32.1628C99.7832 31.1186 101.209 30.3929 102.839 30.3929C105.021 30.3929 106.825 31.5241 106.825 35.2364V41.0372C106.826 41.1327 106.807 41.2274 106.771 41.3159C106.735 41.4043 106.682 41.4847 106.614 41.5522C106.546 41.6198 106.466 41.6733 106.377 41.7094C106.288 41.7456 106.193 41.7638 106.097 41.7629C105.907 41.7548 105.726 41.6758 105.592 41.5413C105.457 41.4069 105.378 41.227 105.37 41.0372V35.2372Z" fill="#FFEBD8"/>
<path d="M111.887 36.339C111.887 38.6311 113.604 40.3132 116.543 40.3132C117.62 40.3132 118.464 40.1104 118.932 39.9364C119.343 39.7911 119.426 39.7623 119.513 39.7623C119.703 39.7702 119.884 39.849 120.019 39.9833C120.154 40.1176 120.233 40.2974 120.241 40.4872C120.241 40.6332 120.195 40.7757 120.111 40.8954C120.028 41.0151 119.909 41.1064 119.772 41.1571C118.745 41.5674 117.648 41.7743 116.542 41.7662C112.555 41.7662 110.431 39.3297 110.431 36.3415C110.431 32.919 112.671 30.3954 116.57 30.3954C117.53 30.4008 118.482 30.5576 119.393 30.86C119.541 30.9137 119.669 31.0126 119.757 31.1428C119.846 31.2729 119.891 31.4277 119.887 31.5849C119.887 31.933 119.508 32.2811 119.13 32.2811C119.043 32.2811 118.927 32.2524 118.606 32.1653C117.947 31.9579 117.261 31.8502 116.57 31.846C113.604 31.8435 111.887 33.7292 111.887 36.339Z" fill="#FFEBD8"/>
<path d="M128.705 30.3929C131.761 30.3929 133.419 32.5684 133.419 34.2801C133.419 35.6757 132.721 36.8324 130.306 36.8324H124.603C124.893 39.1532 126.785 40.3132 129.317 40.3132C130.077 40.3115 130.833 40.1941 131.557 39.9651C131.964 39.8198 132.052 39.7911 132.139 39.7911C132.329 39.7989 132.51 39.8778 132.645 40.0121C132.779 40.1463 132.859 40.3262 132.867 40.516C132.866 40.6612 132.822 40.8029 132.738 40.9222C132.655 41.0414 132.537 41.1325 132.401 41.1834C131.416 41.5593 130.371 41.7559 129.317 41.7638C125.592 41.7638 123.118 39.7623 123.118 36.2233C123.118 32.7137 125.619 30.3929 128.705 30.3929ZM130.335 35.3826C131.499 35.3826 131.994 34.9763 131.994 34.2801C131.994 33.0906 130.684 31.8435 128.705 31.8435C126.639 31.8435 124.981 33.2646 124.631 35.3826H130.335Z" fill="#FFEBD8"/>
<path d="M49.6914 55.0909C49.6904 54.9954 49.7085 54.9007 49.7447 54.8123C49.7809 54.7239 49.8344 54.6436 49.9022 54.5761C49.9699 54.5086 50.0504 54.4552 50.1391 54.4192C50.2278 54.3831 50.3228 54.365 50.4186 54.366H54.4639C56.181 54.366 57.3158 54.9464 58.043 55.6417C58.6829 56.3092 59.1194 57.3821 59.1194 58.3106C59.1149 59.313 58.7304 60.2766 58.043 61.0082C57.9105 61.148 57.7642 61.2742 57.6065 61.3851C58.2139 61.6219 58.768 61.9769 59.2363 62.4293C60.1093 63.2995 60.5161 64.3174 60.5161 65.475C60.5203 66.0176 60.417 66.5557 60.2122 67.0584C60.0075 67.5612 59.7052 68.0188 59.3228 68.4049C58.4499 69.2456 57.1404 69.8826 54.9292 69.8826H50.4186C50.3228 69.8835 50.2277 69.8653 50.1391 69.8291C50.0504 69.793 49.9698 69.7395 49.9021 69.672C49.8344 69.6044 49.7809 69.524 49.7447 69.4356C49.7085 69.3471 49.6904 69.2524 49.6914 69.1569V55.0909ZM57.6642 58.3147C57.6542 57.7087 57.4151 57.1288 56.9946 56.6909C56.4709 56.168 55.6564 55.8207 54.463 55.8207H51.1458V60.8966H54.7249C55.7132 60.8383 56.5582 60.404 56.9946 59.9681C57.4023 59.5872 57.6642 58.9485 57.6642 58.3147ZM51.1458 68.4378H54.9292C56.6166 68.4378 57.6354 68.0273 58.2753 67.3648C58.5258 67.1181 58.7244 66.824 58.8593 66.4998C58.9942 66.1755 59.0628 65.8277 59.0609 65.4766C59.0609 64.723 58.7699 64.0558 58.188 63.4752C57.4896 62.779 56.2938 62.3439 55.0165 62.3439H51.1458V68.4378Z" fill="#FFEBD8"/>
<path d="M69.3899 70C65.8693 70 63.5995 67.5052 63.5995 64.2863C63.5995 61.0674 65.8116 58.3969 69.3899 58.3969C72.9403 58.3969 75.1811 61.0657 75.1811 64.3429C75.1811 67.5348 72.9403 70 69.3899 70ZM69.3899 68.5494C72.0088 68.5494 73.7259 66.722 73.7259 64.3437C73.7259 61.8809 72.0673 59.8483 69.3899 59.8483C66.6846 59.8483 65.0548 61.8785 65.0548 64.2863C65.0548 66.6941 66.7422 68.5494 69.3899 68.5494Z" fill="#FFEBD8"/>
<path d="M80.069 59.964H78.2357C78.0454 59.9562 77.865 59.8773 77.7303 59.743C77.5956 59.6087 77.5164 59.4289 77.5085 59.2391C77.5119 59.0479 77.5896 58.8653 77.7252 58.73C77.8609 58.5946 78.0439 58.517 78.2357 58.5134H80.069V55.5843C80.0726 55.3932 80.1503 55.2109 80.2859 55.0757C80.4215 54.9405 80.6044 54.863 80.7962 54.8594C80.8919 54.8584 80.9869 54.8765 81.0756 54.9126C81.1643 54.9487 81.2449 55.002 81.3126 55.0695C81.3803 55.137 81.4338 55.2173 81.47 55.3057C81.5062 55.3941 81.5243 55.4888 81.5234 55.5843V58.5134H85.394C85.4899 58.5125 85.5849 58.5307 85.6736 58.5669C85.7622 58.6031 85.8428 58.6565 85.9105 58.7241C85.9782 58.7916 86.0317 58.872 86.0679 58.9604C86.1041 59.0489 86.1222 59.1436 86.1212 59.2391C86.1177 59.4303 86.0399 59.6126 85.9043 59.7478C85.7687 59.8829 85.5858 59.9604 85.394 59.964H81.5234V65.7656C81.5234 67.5347 82.7167 68.4337 85.0152 68.4337C85.1128 68.4304 85.2101 68.4467 85.3012 68.4817C85.3924 68.5167 85.4755 68.5696 85.5458 68.6373C85.616 68.7049 85.6718 68.786 85.7099 68.8756C85.7481 68.9653 85.7677 69.0616 85.7677 69.159C85.7677 69.2563 85.7481 69.3527 85.7099 69.4423C85.6718 69.532 85.616 69.613 85.5458 69.6807C85.4755 69.7484 85.3924 69.8013 85.3012 69.8362C85.2101 69.8712 85.1128 69.8876 85.0152 69.8843C81.4361 69.8843 80.069 68.2884 80.069 65.7656V59.964Z" fill="#FFEBD8"/>
<path d="M92.0565 69.8842C89.3503 69.8842 88.507 68.1142 88.507 66.8089C88.507 65.8813 88.8274 64.9823 89.5258 64.3149C90.486 63.416 92.0862 62.7198 94.472 62.7198C95.1119 62.7198 95.7526 62.7486 96.4485 62.8069C96.3028 61.0665 95.3137 59.9639 93.3059 59.9639C92.5862 59.972 91.8711 60.0795 91.1811 60.2833C91.004 60.3553 90.8182 60.4039 90.6285 60.4278C90.2505 60.4278 89.8725 60.0797 89.8725 59.7316C89.8679 59.5743 89.9131 59.4196 90.0019 59.2895C90.0906 59.1593 90.2182 59.0604 90.3666 59.0067C91.0361 58.804 92.2608 58.5142 93.3059 58.5142C96.4773 58.5142 97.9326 60.4286 97.9326 63.2132V65.8525C97.9326 67.1874 98.2233 67.9993 98.8055 68.6372C98.8708 68.7015 98.9225 68.7782 98.9575 68.8629C98.9924 68.9475 99.0099 69.0382 99.0089 69.1297C99.0054 69.3209 98.9276 69.5032 98.792 69.6384C98.6564 69.7735 98.4735 69.8511 98.2818 69.8546C98.1833 69.8534 98.0861 69.8322 97.9961 69.7924C97.906 69.7526 97.825 69.695 97.758 69.6231C97.3122 69.1386 96.9753 68.5649 96.7697 67.9402C95.4611 69.188 93.8609 69.8842 92.0565 69.8842ZM96.4798 64.2566C95.7526 64.1992 95.1119 64.1696 94.472 64.1696C92.61 64.1696 91.3005 64.5801 90.5733 65.3009C90.3726 65.4966 90.2147 65.7317 90.1095 65.9912C90.0044 66.2507 89.9542 66.5291 89.9622 66.8089C89.9622 67.5921 90.631 68.4336 92.0565 68.4336C93.7152 68.4336 95.2577 67.7087 96.4798 66.1423V64.2566Z" fill="#FFEBD8"/>
<path d="M110.97 63.3578C110.97 60.9771 109.982 59.9641 108.439 59.9641C106.809 59.9641 105.296 60.9796 104.074 62.1978V69.1586C104.075 69.2541 104.057 69.3488 104.02 69.4373C103.984 69.5257 103.931 69.6061 103.863 69.6737C103.795 69.7412 103.715 69.7947 103.626 69.8308C103.537 69.867 103.442 69.8852 103.347 69.8843C103.156 69.8762 102.976 69.7972 102.841 69.6628C102.706 69.5283 102.627 69.3484 102.619 69.1586V59.2392C102.623 59.0479 102.7 58.8654 102.836 58.73C102.972 58.5947 103.155 58.517 103.347 58.5135C103.442 58.5126 103.537 58.5308 103.626 58.5669C103.715 58.6031 103.795 58.6565 103.863 58.7241C103.931 58.7917 103.984 58.872 104.02 58.9605C104.057 59.0489 104.075 59.1437 104.074 59.2392V60.285C105.383 59.2408 106.809 58.5151 108.439 58.5151C110.621 58.5151 112.425 59.6463 112.425 63.3586V69.1594C112.426 69.255 112.408 69.3498 112.372 69.4383C112.336 69.5268 112.282 69.6072 112.214 69.6748C112.147 69.7424 112.066 69.7958 111.977 69.8319C111.888 69.868 111.793 69.8861 111.697 69.8851C111.507 69.8771 111.327 69.798 111.192 69.6636C111.057 69.5292 110.978 69.3492 110.97 69.1594V63.3578Z" fill="#FFEBD8"/>
<path d="M117.983 55.3816C117.284 55.3816 116.731 54.8595 116.731 54.018C116.731 53.1478 117.255 52.5674 117.953 52.5674C118.623 52.5674 119.146 53.1478 119.146 54.018C119.146 54.9169 118.594 55.3816 117.983 55.3816ZM117.983 58.5135C118.079 58.5126 118.174 58.5308 118.262 58.5669C118.351 58.6031 118.432 58.6565 118.499 58.7241C118.567 58.7917 118.62 58.872 118.657 58.9605C118.693 59.0489 118.711 59.1437 118.71 59.2392V69.1586C118.711 69.2541 118.693 69.3489 118.657 69.4373C118.62 69.5257 118.567 69.6061 118.499 69.6737C118.432 69.7412 118.351 69.7947 118.262 69.8308C118.174 69.867 118.079 69.8852 117.983 69.8843C117.792 69.8765 117.612 69.7975 117.477 69.663C117.342 69.5286 117.263 69.3486 117.255 69.1586V59.2392C117.258 59.0478 117.336 58.8651 117.472 58.7298C117.608 58.5944 117.791 58.5168 117.983 58.5135Z" fill="#FFEBD8"/>
<path d="M124.238 64.4603C124.238 66.7516 125.955 68.4337 128.894 68.4337C129.97 68.4337 130.814 68.2309 131.282 68.0569C131.694 67.9116 131.776 67.8828 131.864 67.8828C132.055 67.8907 132.235 67.9696 132.37 68.1039C132.505 68.2381 132.584 68.418 132.592 68.6077C132.591 68.7528 132.546 68.8944 132.463 69.0135C132.38 69.1327 132.263 69.2239 132.126 69.2751C131.1 69.6854 130.003 69.8923 128.896 69.8843C124.91 69.8843 122.786 67.4477 122.786 64.4603C122.786 61.037 125.027 58.5134 128.925 58.5134C129.885 58.5188 130.837 58.6756 131.748 58.9781C131.896 59.0317 132.024 59.1307 132.112 59.2608C132.201 59.391 132.246 59.5457 132.242 59.703C132.242 60.051 131.864 60.3991 131.486 60.3991C131.398 60.3991 131.281 60.3704 130.961 60.2834C130.302 60.0759 129.615 59.9683 128.924 59.964C125.955 59.964 124.238 61.8497 124.238 64.4603Z" fill="#FFEBD8"/>
<path d="M139.048 69.8842C136.342 69.8842 135.499 68.1142 135.499 66.8089C135.499 65.8813 135.818 64.9823 136.518 64.3149C137.477 63.416 139.078 62.7198 141.464 62.7198C142.104 62.7198 142.744 62.7486 143.44 62.8069C143.295 61.0665 142.305 59.9639 140.298 59.9639C139.578 59.9719 138.863 60.0794 138.173 60.2833C137.996 60.3553 137.81 60.4039 137.62 60.4278C137.242 60.4278 136.863 60.0797 136.863 59.7316C136.859 59.5744 136.904 59.4197 136.993 59.2896C137.082 59.1594 137.209 59.0605 137.358 59.0067C138.027 58.804 139.252 58.5142 140.297 58.5142C143.468 58.5142 144.924 60.4286 144.924 63.2132V65.8525C144.924 67.1874 145.214 67.9993 145.797 68.6372C145.862 68.7015 145.914 68.7782 145.948 68.8629C145.983 68.9475 146.001 69.0382 146 69.1297C145.996 69.321 145.918 69.5034 145.783 69.6386C145.647 69.7738 145.464 69.8513 145.272 69.8546C145.174 69.8533 145.077 69.832 144.987 69.7922C144.897 69.7525 144.816 69.6949 144.749 69.6231C144.303 69.1386 143.966 68.5649 143.761 67.9402C142.453 69.188 140.854 69.8842 139.048 69.8842ZM143.472 64.2566C142.744 64.1992 142.104 64.1696 141.464 64.1696C139.602 64.1696 138.292 64.5801 137.564 65.3009C137.364 65.4967 137.206 65.7318 137.101 65.9913C136.996 66.2508 136.945 66.5292 136.953 66.8089C136.953 67.5921 137.623 68.4336 139.048 68.4336C140.707 68.4336 142.249 67.7087 143.472 66.1423V64.2566Z" fill="#FFEBD8"/>
<path d="M43.346 25.0436C43.346 34.303 40.8531 42.9122 36.5714 50.0873C32.289 42.9122 29.7944 34.303 29.7944 25.0436C29.7944 15.7842 32.2898 7.17502 36.5714 0C40.8547 7.17502 43.346 15.7842 43.346 25.0436Z" fill="#FFEBD8"/>
<path d="M21.1924 31.5661C26.5251 36.8666 30.1644 43.6222 31.6515 50.9813C24.2729 49.485 17.4996 45.8563 12.1763 40.5478C6.85295 35.2393 3.21533 28.486 1.7171 21.1302C9.10001 22.6161 15.8765 26.2473 21.1924 31.5661Z" fill="#FFEBD8"/>
<path d="M15.2168 50.9738C20.5557 51.2108 25.7048 53.0178 30.0151 56.1671C25.4286 58.8997 20.1364 60.2257 14.7988 59.9799C9.46116 59.734 4.31425 57.9272 0 54.7846C4.58365 52.0448 9.87833 50.7188 15.2168 50.9738Z" fill="#FFEBD8"/>
<path d="M22.2804 63.2847C24.9667 61.7068 28.0615 60.9567 31.1747 61.1289C29.8039 63.9204 27.6392 66.2479 24.9504 67.8212C22.2615 69.3944 19.1676 70.144 16.0543 69.9762C17.4214 67.1819 19.5878 64.8535 22.2804 63.2847Z" fill="#FFEBD8"/>
</svg>
