<svg width="1920" height="1210" viewBox="0 0 1920 1210" fill="none" xmlns="http://www.w3.org/2000/svg">
<path d="M-131.651 176.407C-270.816 264.723 -249.782 382.377 -221.869 430.165C-240.312 578.19 -278.095 914.902 -281.683 1077.55C-286.169 1280.85 -4.32684 1125.53 207.689 1190.44C477.896 1273.16 1236.31 1061.81 1540.03 1140.41C1608.03 1158.01 1895.51 1204.98 1952 1183L1978.26 695.412L1956.33 120.96C1887.88 84.8281 1707.81 21.4553 1535.15 57.0212C1319.32 101.479 1252.53 123.458 994.831 131.95C737.136 140.442 585.111 61.5171 417.136 12.5638C249.16 -36.3894 42.3062 66.0128 -131.651 176.407Z" fill="#005C46"/>
</svg>
