<svg width="1920" height="1230" viewBox="0 0 1920 1230" fill="none" xmlns="http://www.w3.org/2000/svg">
<path d="M1388.2 1149.95C1311.7 1142.72 1073.91 1143.04 975 1127.88L1936.46 960C1954.03 1075.68 1997.21 1126.73 1834.04 1189.71C1681.31 1248.66 1511.21 1161.56 1388.2 1149.95Z" fill="#5F9EA0"/>
<path d="M-17.5649 1178.64C-94.1943 1171.62 -281.5 1156.5 -259.5 1078.5L430.502 1030C448.102 1142.34 493.865 1147.75 330.428 1208.92C177.459 1266.16 105.641 1189.92 -17.5649 1178.64Z" fill="#5F9EA0"/>
<path d="M797.809 50.7574C633.255 53.1324 217.675 145.428 30.4545 191.279L0 503L2010 482.219L1994.52 50.7574C1907.99 29.811 1701.66 0.486109 1568.66 50.7574C1402.41 113.596 1417.38 155.654 1323.52 158.623C1229.66 161.591 1003.5 47.7886 797.809 50.7574Z" fill="#5F9EA0"/>
<path d="M-131.651 176.407C-270.816 264.723 -249.782 382.377 -221.869 430.165C-240.312 578.19 -278.095 914.902 -281.683 1077.55C-286.169 1280.85 -4.32684 1125.53 207.689 1190.44C477.896 1273.16 1236.31 1061.81 1540.03 1140.41C1608.03 1158.01 1895.51 1204.98 1952 1183L1978.26 695.412L1956.33 120.96C1887.88 84.8281 1707.81 21.4553 1535.15 57.0212C1319.32 101.479 1252.53 123.458 994.831 131.95C737.136 140.442 585.111 61.5171 417.136 12.5638C249.16 -36.3894 42.3062 66.0128 -131.651 176.407Z" fill="#005C46"/>
</svg>
