<svg width="120" height="120" viewBox="0 0 120 120" fill="none" xmlns="http://www.w3.org/2000/svg">
<path d="M10.4725 55.4325C10.4125 54.7421 10.4968 54.0468 10.7198 53.3908C10.9428 52.7347 11.2998 52.1321 11.768 51.6213C12.2363 51.1105 12.8056 50.7026 13.4399 50.4235C14.0742 50.1444 14.7595 50.0002 15.4525 50H25C26.3261 50 27.5978 50.5268 28.5355 51.4645C29.4732 52.4021 30 53.6739 30 55V102.5C30 103.826 29.4732 105.098 28.5355 106.036C27.5978 106.973 26.3261 107.5 25 107.5H19.585C18.3336 107.5 17.1275 107.031 16.205 106.186C15.2826 105.34 14.7107 104.179 14.6025 102.932L10.4725 55.4325ZM45 53.4375C45 51.3475 46.3 49.4775 48.1875 48.5875C52.31 46.6425 59.3325 42.735 62.5 37.4525C66.5825 30.6425 67.3525 18.34 67.4775 15.5225C67.495 15.1275 67.485 14.7325 67.5375 14.3425C68.215 9.45999 77.6375 15.1625 81.25 21.1925C83.2125 24.4625 83.4625 28.76 83.2575 32.1175C83.035 35.7075 81.9825 39.175 80.95 42.62L78.75 49.9625H105.892C106.665 49.9624 107.427 50.1414 108.119 50.4853C108.81 50.8292 109.413 51.3288 109.879 51.9447C110.346 52.5607 110.663 53.2763 110.806 54.0354C110.949 54.7945 110.915 55.5765 110.705 56.32L97.28 103.86C96.9836 104.908 96.3529 105.831 95.4837 106.489C94.6145 107.146 93.5545 107.501 92.465 107.5H50C48.6739 107.5 47.4021 106.973 46.4644 106.036C45.5268 105.098 45 103.826 45 102.5V53.4375Z" stroke="#FFEBD8" stroke-width="6" stroke-linecap="round" stroke-linejoin="round"/>
</svg>
