<svg width="121" height="120" viewBox="0 0 121 120" fill="none" xmlns="http://www.w3.org/2000/svg">
<path d="M102.877 17.645C93.0397 7.81085 80.0835 1.68022 66.2169 0.298109C52.3504 -1.084 38.432 2.36799 26.8341 10.0656C15.2362 17.7633 6.67684 29.2301 2.61494 42.5116C-1.44697 55.793 -0.759943 70.0669 4.5589 82.9002C9.87774 95.7334 19.4992 106.332 31.7831 112.888C44.0671 119.445 58.2532 121.554 71.9233 118.856C85.5935 116.159 97.9014 108.821 106.749 98.0941C115.597 87.3672 120.437 73.9151 120.444 60.0308C120.464 52.161 118.922 44.365 115.907 37.091C112.892 29.817 108.464 23.2084 102.877 17.645ZM6.22988 60.0308C6.20797 49.6133 9.21949 39.4131 14.8994 30.6666C20.5792 21.92 28.6836 15.0028 38.2302 10.7532C47.7768 6.50357 58.3556 5.10405 68.6845 6.72432C79.0133 8.3446 88.6487 12.9151 96.4227 19.8817L78.9679 37.2163V31.6245C78.944 30.0977 78.4109 28.6222 77.4525 27.4306C76.6356 26.3943 75.5189 25.633 74.2534 25.2499L55.7321 19.6581C53.9164 19.0185 51.9354 19.0185 50.1196 19.6581L31.9351 27.3748C30.8273 27.8236 29.8726 28.5807 29.185 29.5556C28.3237 30.745 27.8532 32.1709 27.838 33.6375V54.7745C27.9188 55.7904 28.2051 56.7796 28.6799 57.6822L22.5061 60.3104C21.4135 60.8105 20.4527 61.5571 19.6999 62.4912C18.8498 63.6406 18.3969 65.0337 18.409 66.4614V87.6542C18.4947 88.9701 18.9581 90.2336 19.7442 91.2944C20.5303 92.3552 21.6059 93.1685 22.8429 93.6374L20.3173 96.1538C11.2675 86.2866 6.26083 73.397 6.28602 60.0308H6.22988ZM84.8049 42.2489L102.091 47.8407L85.2539 54.8305L84.0753 55.3337C83.512 55.5297 82.8987 55.5297 82.3354 55.3337L81.0445 54.9422L72.5696 52.0905L82.616 42.0812C83.3303 41.9694 84.0609 42.0269 84.7488 42.2489H84.8049ZM41.7009 95.986L31.879 92.6868L41.7009 82.9572V95.986ZM24.0776 90.3942C23.4526 90.192 22.9036 89.806 22.5028 89.287C22.1021 88.768 21.8685 88.1403 21.8326 87.4865V66.5173C21.8056 66.257 21.8056 65.9947 21.8326 65.7344L39.7926 71.6617C40.2663 71.8494 40.6737 72.1725 40.9634 72.5905C41.253 73.0084 41.412 73.5024 41.4203 74.0103V74.4576L25.2563 90.562L24.0776 90.3942ZM25.144 62.9944L41.9815 55.8928C43.0313 55.5028 44.187 55.5028 45.2368 55.8928L52.3646 57.6822L55.1709 58.577L57.023 59.1361L50.1758 65.9581L47.594 67.0205L45.4051 67.9152L44.2265 68.3626C43.6678 68.5836 43.0454 68.5836 42.4866 68.3626L41.308 67.9711L25.144 62.9944ZM61.4008 55.11V53.3207C61.3734 53.0417 61.3734 52.7608 61.4008 52.4819L63.309 53.1529L61.4008 55.11ZM64.7121 49.5182L68.3041 48.0085L66.2836 50.0774L64.7121 49.5182ZM75.1514 41.2424L61.962 46.8342C60.8553 47.337 59.8911 48.1056 59.1558 49.0709C58.274 50.2286 57.8005 51.6437 57.8088 53.0969V55.7251L55.7321 55.0541L54.778 54.7745V40.6273C54.789 40.1415 54.9441 39.6699 55.2238 39.2718C55.5035 38.8738 55.8952 38.5672 56.3495 38.3906L75.3198 30.562C75.3734 30.8579 75.3734 31.1609 75.3198 31.4567V40.9069L75.1514 41.2424ZM53.7678 35.6506C53.2045 35.8466 52.5911 35.8466 52.0279 35.6506L50.6809 35.3151L34.6853 29.7233L51.5228 22.5658C52.5581 22.2035 53.6865 22.2035 54.7219 22.5658L72.0084 28.1576L53.7678 35.6506ZM31.9351 56.1166C31.5917 55.643 31.3964 55.0787 31.3739 54.4949V33.4698C31.3437 33.2097 31.3437 32.947 31.3739 32.6869L49.5023 38.6702C49.9759 38.8413 50.3857 39.1526 50.6766 39.5624C50.9675 39.9722 51.1257 40.4608 51.1299 40.9628V53.712L46.247 52.2023C44.4371 51.5294 42.4444 51.5294 40.6345 52.2023L31.9351 56.1166ZM45.2929 79.5462L57.9771 66.685L64.5999 63.945L65.7785 63.4418C65.81 63.7579 65.81 64.0763 65.7785 64.3924V85.082C65.7947 85.7243 65.6085 86.3557 65.2461 86.8873C64.8837 87.4188 64.3633 87.8238 63.758 88.0456L45.0684 95.7623L45.2929 79.5462ZM69.595 64.5601C69.6143 62.9822 69.0556 61.4515 68.0235 60.2545C67.6702 59.8225 67.254 59.4455 66.7888 59.1361C66.7888 59.1361 66.3959 59.1362 66.2275 58.8566L69.8195 55.2218L79.5291 58.4651C80.0133 58.6269 80.4351 58.9343 80.7367 59.3449C81.0382 59.7555 81.2046 60.2491 81.2129 60.7577V83.1249L69.5389 79.2666L69.595 64.5601ZM84.861 60.7018C84.86 60.2207 85.0039 59.7504 85.2741 59.3517C85.5442 58.953 85.9282 58.6441 86.3764 58.4651L105.403 50.5807C105.456 50.8953 105.456 51.2166 105.403 51.5312V72.2209C105.399 72.8659 105.206 73.4957 104.847 74.0324C104.488 74.569 103.978 74.989 103.382 75.2405L84.6926 82.9572L84.861 60.7018ZM98.7239 98.3346C88.9198 108.086 75.7318 113.715 61.8827 114.058C48.0336 114.401 34.5809 109.433 24.3021 100.18L28.9044 95.5387L41.0274 99.5648C41.7158 99.7892 42.4358 99.9025 43.1601 99.9003H43.4969C44.2862 99.8578 45.0634 99.6879 45.798 99.397L65.2734 91.233C66.5343 90.7216 67.6136 89.8472 68.3734 88.7217C69.1332 87.5962 69.5389 86.2706 69.5389 84.9142V82.5098L80.7639 86.1444C81.425 86.4047 82.1297 86.5376 82.8405 86.5359H83.4018C84.1495 86.4946 84.887 86.3438 85.5906 86.0885L105.01 78.0364C106.275 77.5313 107.359 76.6585 108.12 75.5316C108.88 74.4047 109.283 73.0757 109.275 71.7176V51.028C109.275 49.4535 108.719 47.9294 107.704 46.7223C106.863 45.7241 105.753 44.9868 104.505 44.5975L86.0957 39.0057L100.688 24.1315C109.95 34.3843 114.905 47.7902 114.529 61.5792C114.153 75.3681 108.475 88.4861 98.6678 98.2227L98.7239 98.3346Z" fill="#FFEBD8"/>
</svg>
