<svg width="120" height="96" viewBox="0 0 120 96" fill="none" xmlns="http://www.w3.org/2000/svg">
<g clip-path="url(#clip0_51_190)">
<path d="M8.58578 7.42725C10.6444 10.119 13.6067 12.7111 16.0168 16.1507C32.3621 40.3299 46.7985 65.7286 59.1967 92.1191C86.1089 76.1179 64.5691 37.6851 64.5691 37.6851L63.0126 42.6699C56.7908 29.8314 47.0446 18.9977 34.8954 11.4151L35.5984 15.9014C27.113 5.28376 5.47281 0.947021 5.47281 0.947021C5.47281 0.947021 -1.50628 21.7835 3.56486 34.3453L0 31.5537C0.626345 45.7753 5.29123 59.531 13.4561 71.2328L8.43516 70.0863C8.43516 70.0863 29.9247 105.229 56.0335 93.6644C43.9961 67.1038 30.3303 41.3006 15.113 16.3999C11.046 10.7671 8.58578 7.42725 8.58578 7.42725Z" fill="#FFEBD8"/>
<path d="M120 30.5569L116.435 33.3483C121.456 20.7866 114.527 0 114.527 0C114.527 0 92.8368 4.23712 84.4016 14.9545L85.1045 10.518C76.7952 15.7593 69.5697 22.5267 63.8158 30.4572C69.4074 40.3997 73.4051 51.1461 75.6652 62.3101C86.7112 42.3709 97.5564 25.3228 104.385 15.4529C106.594 12.0632 109.406 9.22189 111.414 6.57994C111.414 6.57994 109.105 10.4681 105.088 16.2505C94.6063 32.9429 85.0034 50.1637 76.3179 67.8433C77.0369 72.6642 76.4904 77.5877 74.7312 82.1375C72.972 86.6872 70.0596 90.7092 66.276 93.8141C91.3807 102.637 111.766 69.3885 111.766 69.3885L106.745 70.5849C114.896 58.7597 119.493 44.8773 120 30.5569Z" fill="#FFEBD8"/>
</g>
<defs>
<clipPath id="clip0_51_190">
<rect width="120" height="96" fill="white"/>
</clipPath>
</defs>
</svg>
